# xmcd
#
# Track frame offsets: 
#        151
#        7456
#        9906
#        15341
#        23317
#        29731
#        38269
#        44140
#        47312
#        50407
#        56583
#        65628
#        67573
#        74856
#        79277
#        82566
#        89802
#        92297
#        99363
#        103077
#        103851
#        104444
#        116577
#        118076
#        127596
#        128135
#        128978
#        134161
#        142544
#        142957
#        143819
#        151431
#        159595
#        160218
#        160708
#        161360
#        165164
#        170603
#        174323
#        175088
#        176477
#        178236
#        186295
#        193154
#        196641
#        201858
#        202354
#        211919
#        213011
#        216804
#        226136
#        233594
#        239199
#        239980
#        240365
#        242065
#        249497
#        249924
#        260307
#        267313
#        269883
#        277043
#        277726
#        281960
#        282769
#        284598
#        294217
#        298098
#        299413
#        301245
#        302666
#        313490
#        315182
#
# Disc length: 4267 seconds
#
# Revision: 1
# Processed by: cddbd v1.5.2PL0 Copyright (c) Steve Scherf et al.
# Submitted via: ExactAudioCopy v1.3
#
DISCID=2910a949
DTITLE=Violent Headache - Bombs Of Crust and False Terimnal
DYEAR=2000
DGENRE=Grindcore
TTITLE0=Tradicion De Progreso
TTITLE1=Soja Mutante
TTITLE2=Tonto Skins
TTITLE3=La Pena De Las Galaxias
TTITLE4=Mind Control
TTITLE5=Soy
TTITLE6=De O Comen 7
TTITLE7=Hemorroide
TTITLE8=Knight Rider
TTITLE9=Rencore
TTITLE10=Coma
TTITLE11=Tele-Gore
TTITLE12=War Fucking War
TTITLE13=Expediente-X
TTITLE14=V.H. Theme Song
TTITLE15=Muerte En Urgencias
TTITLE16=Bastard
TTITLE17=Les Llaman Machos
TTITLE18=Leaders (Mau Maus)
TTITLE19=La Legion Oleosa
TTITLE20=France Se Pudre
TTITLE21=La Secta Del Profeta
TTITLE22=Robo Por El Grifo
TTITLE23=La Nada
TTITLE24=Quein Es El Animal
TTITLE25=Stop Discrimination
TTITLE26=Las Porras
TTITLE27=Solo Los Muertos
TTITLE28=Peste Politica
TTITLE29=Tonitos En Dinerolandia
TTITLE30=S.I.D.A. (Virus Probeta)
TTITLE31=Jet-Vicious
TTITLE32=Vitaminas De Plastico
TTITLE33=La Rosas
TTITLE34=No Se Wien Es Mas Feo
TTITLE35=Realidad Diferente
TTITLE36=Holocausto Mosquito
TTITLE37=Amiga Manquina
TTITLE38=Chandal Ensangrentado
TTITLE39=Flower Power
TTITLE40=Dogmatozombies
TTITLE41=Calimocho Nuclear
TTITLE42=Huelga Indefinida
TTITLE43=Site He Visto, No Me Acuerdo
TTITLE44=Off Position
TTITLE45=Construyendo Lo Destruido
TTITLE46=Ozono
TTITLE47=En El Nombize Del Feto
TTITLE48=Taurobarbarie
TTITLE49=Vomitando Odio
TTITLE50=La Muerte Va A Pilas
TTITLE51=Que  Bonito Seria No Haber Nacido
TTITLE52=OM (Lo Perfecto)
TTITLE53=Veredicto: Castracion
TTITLE54=Blue Caskets For Peace
TTITLE55=Excrementos Septicos
TTITLE56=Kids For Casah (B.G.K.)
TTITLE57=Nihilism (Pt. 2)
TTITLE58=Veda De Muerte
TTITLE59=Prisoneros De Down
TTITLE60=Violencia =Demencia
TTITLE61=Escuadrones De La Muerte
TTITLE62=Hell Star
TTITLE63=El Gran Liceo De La Verguenza
TTITLE64=Weekend
TTITLE65=Hola Johnny
TTITLE66=El Ojo Yonki
TTITLE67=Rip Offs
TTITLE68=Educacion Subliminal
TTITLE69=Sweet Leaf (Black Sabbath)
TTITLE70=Basta (Outro)
TTITLE71=Untitled 1
TTITLE72=Untitled 2
EXTD=YEAR: 2000
EXTT0=
EXTT1=
EXTT2=
EXTT3=
EXTT4=
EXTT5=
EXTT6=
EXTT7=
EXTT8=
EXTT9=
EXTT10=
EXTT11=
EXTT12=
EXTT13=
EXTT14=
EXTT15=
EXTT16=
EXTT17=
EXTT18=
EXTT19=
EXTT20=
EXTT21=
EXTT22=
EXTT23=
EXTT24=
EXTT25=
EXTT26=
EXTT27=
EXTT28=
EXTT29=
EXTT30=
EXTT31=
EXTT32=
EXTT33=
EXTT34=
EXTT35=
EXTT36=
EXTT37=
EXTT38=
EXTT39=
EXTT40=
EXTT41=
EXTT42=
EXTT43=
EXTT44=
EXTT45=
EXTT46=
EXTT47=
EXTT48=
EXTT49=
EXTT50=
EXTT51=
EXTT52=
EXTT53=
EXTT54=
EXTT55=
EXTT56=
EXTT57=
EXTT58=
EXTT59=
EXTT60=
EXTT61=
EXTT62=
EXTT63=
EXTT64=
EXTT65=
EXTT66=
EXTT67=
EXTT68=
EXTT69=
EXTT70=
EXTT71=
EXTT72=
PLAYORDER=
